name D:\school\WTK\thesis\model\3dpredictsim\Results\Batchsim_tmt_linear_v2\Pog_s1_tmt_aCst_d00_k2000_ig24.mot
datacolumns 128
datarows 4
range 1.03396205 1.06498092
endheader
time	pelvis_tilt	pelvis_list	pelvis_rotation	pelvis_tx	pelvis_ty	pelvis_tz	hip_flexion_l	hip_adduction_l	hip_rotation_l	hip_flexion_r	hip_adduction_r	hip_rotation_r	knee_angle_l	knee_angle_r	ankle_angle_l	ankle_angle_r	subtalar_angle_l	subtalar_angle_r	tmt_angle_l	tmt_angle_r	mtp_angle_l	mtp_angle_r	lumbar_extension	lumbar_bending	lumbar_rotation	arm_flex_l	arm_add_l	arm_rot_l	arm_flex_r	arm_add_r	arm_rot_r	elbow_flex_l	elbow_flex_r	pro_sup_l	pro_sup_r	glut_med1_l/activation	glut_med2_l/activation	glut_med3_l/activation	glut_min1_l/activation	glut_min2_l/activation	glut_min3_l/activation	semimem_l/activation	semiten_l/activation	bifemlh_l/activation	bifemsh_l/activation	sar_l/activation	add_long_l/activation	add_brev_l/activation	add_mag1_l/activation	add_mag2_l/activation	add_mag3_l/activation	tfl_l/activation	pect_l/activation	grac_l/activation	glut_max1_l/activation	glut_max2_l/activation	glut_max3_l/activation	iliacus_l/activation	psoas_l/activation	quad_fem_l/activation	gem_l/activation	peri_l/activation	rect_fem_l/activation	vas_med_l/activation	vas_int_l/activation	vas_lat_l/activation	med_gas_l/activation	lat_gas_l/activation	soleus_l/activation	tib_post_l/activation	flex_dig_l/activation	flex_hal_l/activation	tib_ant_l/activation	per_brev_l/activation	per_long_l/activation	per_tert_l/activation	ext_dig_l/activation	ext_hal_l/activation	ercspn_l/activation	intobl_l/activation	extobl_l/activation	glut_med1_r/activation	glut_med2_r/activation	glut_med3_r/activation	glut_min1_r/activation	glut_min2_r/activation	glut_min3_r/activation	semimem_r/activation	semiten_r/activation	bifemlh_r/activation	bifemsh_r/activation	sar_r/activation	add_long_r/activation	add_brev_r/activation	add_mag1_r/activation	add_mag2_r/activation	add_mag3_r/activation	tfl_r/activation	pect_r/activation	grac_r/activation	glut_max1_r/activation	glut_max2_r/activation	glut_max3_r/activation	iliacus_r/activation	psoas_r/activation	quad_fem_r/activation	gem_r/activation	peri_r/activation	rect_fem_r/activation	vas_med_r/activation	vas_int_r/activation	vas_lat_r/activation	med_gas_r/activation	lat_gas_r/activation	soleus_r/activation	tib_post_r/activation	flex_dig_r/activation	flex_hal_r/activation	tib_ant_r/activation	per_brev_r/activation	per_long_r/activation	per_tert_r/activation	ext_dig_r/activation	ext_hal_r/activation	ercspn_r/activation	intobl_r/activation	extobl_r/activation	
          1.03396205	         -1.98774071	          1.08934980	          4.25336502	          1.29245257	          0.87447076	         -0.00159971	        -18.55556230	          1.67047618	          4.82877202	         25.77137292	         -0.52579954	         -3.66269844	         -4.17614870	         -8.74764285	         -7.49779768	          5.46200465	          6.76138081	          5.50553397	          0.54652185	          0.01830492	         25.72596307	         -0.11658533	         -0.16962542	         -3.31247178	         -1.34612461	          4.53813280	        -13.46166526	         13.31431839	         -7.00099466	        -13.45167178	         18.03462865	         18.79204308	         14.74162549	         86.51662706	         86.51662706	          0.30415520	          0.09444189	          0.08055938	          0.28818094	          0.16424980	          0.09444188	          0.05000164	          0.05000016	          0.05000015	          0.05000024	          0.09422164	          0.05000007	          0.05000006	          0.05000013	          0.05000059	          0.05000061	          0.23683222	          0.05000025	          0.05000023	          0.05003710	          0.05000867	          0.05000180	          0.33808601	          0.66465827	          0.05000027	          0.05602316	          0.07458129	          0.28382554	          0.05000500	          0.05000786	          0.05000506	          0.19896547	          0.29081032	          0.21065905	          0.22277189	          0.17696274	          0.27591058	          0.05000004	          0.07938919	          0.13491146	          0.05000023	          0.05000007	          0.05000022	          0.05000000	          0.05000001	          0.05000002	          0.05000017	          0.06871748	          0.10238364	          0.05000018	          0.05000029	          0.06738184	          0.06871745	          0.06044930	          0.06871788	          0.05000331	          0.05000058	          0.05000021	          0.05000073	          0.14203811	          0.13426562	          0.13564868	          0.05000150	          0.05000091	          0.05861608	          0.05861684	          0.07047077	          0.14899905	          0.05000005	          0.05000006	          0.06216869	          0.05000035	          0.05000148	          0.05000019	          0.05000121	          0.05000257	          0.05000077	          0.05000002	          0.05000007	          0.05000000	          0.05539702	          0.05861657	          0.05861646	          0.43460615	          0.25514409	          0.17427066	          0.16286266	          0.44389341	          0.20956569	          0.05470853	          0.15718840	          0.15001255	
          1.04430168	         -1.97759856	          1.15660134	          4.41315680	          1.30818202	          0.87320305	         -0.00150419	        -18.50515678	          1.55603082	          4.61475936	         25.32545789	         -0.40523483	         -3.44829359	         -5.99107074	         -8.53174090	         -8.08212420	          5.04931740	          7.65114206	          5.08456539	          0.52021047	          0.01998361	         26.65799930	         -0.09150974	          0.00763727	         -3.16017083	         -1.39651285	          4.42774324	        -13.48095389	         13.55124060	         -8.01579397	        -13.44994220	         18.03138432	         19.45043036	         14.74956280	         86.51662706	         86.51662706	          0.25944583	          0.08055936	          0.06871752	          0.24581968	          0.14010583	          0.08055936	          0.05000093	          0.05000012	          0.05000010	          0.05000018	          0.08037171	          0.11543458	          0.08417131	          0.05001567	          0.05000300	          0.05000046	          0.20201898	          0.05862040	          0.05000877	          0.05000121	          0.05000075	          0.05000095	          0.28838890	          0.59120105	          0.05961309	          0.05000041	          0.06361823	          0.24210443	          0.11697924	          0.10895454	          0.07255032	          0.16971842	          0.24806251	          0.20832101	          0.20424861	          0.15096158	          0.23535461	          0.05000001	          0.06771972	          0.13718041	          0.05000013	          0.05000003	          0.05000011	          0.05000003	          0.05000016	          0.05725773	          0.05861637	          0.05861670	          0.23956503	          0.05861691	          0.05861658	          0.05861346	          0.05861640	          0.05156359	          0.05861674	          0.05000017	          0.05000070	          0.09444190	          0.15208049	          0.13080308	          0.16867735	          0.15543397	          0.05000011	          0.06872110	          0.05000307	          0.05000050	          0.06011191	          0.18230021	          0.05861642	          0.05000128	          0.05303018	          0.12410973	          0.10645788	          0.05832894	          0.20411515	          0.20426311	          0.17748412	          0.05000004	          0.05000007	          0.05053929	          0.05000001	          0.05000025	          0.05000020	          0.56499021	          0.26153489	          0.14865373	          0.46421323	          0.52922666	          0.30489810	          0.05000009	          0.13408239	          0.12796136	
          1.05464130	         -1.96078131	          1.20549371	          4.54982532	          1.32421207	          0.87190283	         -0.00140152	        -18.33767977	          1.42571507	          4.39017969	         24.79127608	         -0.29065845	         -3.20146481	         -8.03270181	         -8.91657829	         -8.69818696	          4.39869858	          8.54726883	          4.66032774	          0.47602502	          0.01080847	         27.35341461	         -0.04544179	          0.20811064	         -2.97374122	         -1.44213478	          4.24257254	        -13.50728615	         13.77218505	         -9.05437184	        -13.45140232	         18.01695302	         20.11203757	         14.77518189	         86.51662706	         86.51662706	          0.22130846	          0.06871750	          0.05861638	          0.20968534	          0.11951091	          0.06871752	          0.05000351	          0.05000033	          0.05000088	          0.05000006	          0.06855755	          0.16389774	          0.20972484	          0.05862565	          0.05861291	          0.05861984	          0.17232311	          0.05000367	          0.05000080	          0.05861441	          0.05861614	          0.05861646	          0.24599700	          0.52307987	          0.05861636	          0.05861644	          0.05718815	          0.20651614	          0.13143258	          0.15216287	          0.15215647	          0.14477055	          0.21159842	          0.17769876	          0.17422507	          0.12877123	          0.20075870	          0.05000003	          0.05776527	          0.15040062	          0.05000007	          0.05000003	          0.05000016	          0.05000002	          0.06871717	          0.07227901	          0.05000006	          0.05000050	          0.20435008	          0.05000050	          0.05000024	          0.05000022	          0.05000007	          0.05000010	          0.05000035	          0.05000004	          0.05000013	          0.08055942	          0.12972536	          0.19329792	          0.19198122	          0.15720204	          0.05861697	          0.05861967	          0.05861463	          0.10546526	          0.10742582	          0.15550301	          0.05000012	          0.05000032	          0.15652004	          0.10586619	          0.09080907	          0.06871754	          0.22412318	          0.24668429	          0.18236152	          0.05000010	          0.05000031	          0.05000001	          0.05861635	          0.06864919	          0.06871516	          0.48193910	          0.31100094	          0.17282354	          0.39597601	          0.45143268	          0.26007943	          0.05000000	          0.11437287	          0.10915160	
          1.06498092	         -1.93912652	          1.23530725	          4.66316821	          1.34042344	          0.87054285	         -0.00130132	        -18.07149083	          1.28294233	          4.15753132	         24.13466743	         -0.20657771	         -2.94061274	        -10.25479578	         -9.62328386	         -9.30095509	          3.89961258	          9.41537413	          4.21464762	          0.41287911	         -0.00398842	         27.63817585	         -0.18092522	          0.42043686	         -2.75635246	         -1.47976414	          4.00106117	        -13.53903115	         13.97021956	        -10.09180058	        -13.46042139	         18.03093192	         20.77893673	         14.80106347	         86.51662706	         86.51662706	          0.25485509	          0.05861634	          0.05000004	          0.22424624	          0.10194336	          0.05861637	          0.05767880	          0.05000017	          0.05000011	          0.05000045	          0.05862133	          0.16500400	          0.18862863	          0.05000828	          0.05000157	          0.05000315	          0.14699244	          0.10201422	          0.05000068	          0.05000051	          0.05000040	          0.05000051	          0.20983655	          0.49016714	          0.05000006	          0.05000020	          0.05000005	          0.17615917	          0.11211260	          0.12979563	          0.12979017	          0.12348991	          0.18049438	          0.15157782	          0.14861479	          0.10984255	          0.17124814	          0.05000003	          0.12962748	          0.13376732	          0.05000050	          0.10605600	          0.05000027	          0.05473602	          0.05861605	          0.06165432	          0.21637052	          0.22634498	          0.34786922	          0.27931115	          0.21762617	          0.20460921	          0.06871760	          0.05000104	          0.06902602	          0.07798302	          0.06866638	          0.06871755	          0.11065632	          0.16488401	          0.16376089	          0.15190456	          0.05000068	          0.05000310	          0.05000022	          0.17186897	          0.14894731	          0.13264712	          0.05000202	          0.05000045	          0.13351233	          0.09030658	          0.20811893	          0.05861637	          0.19117807	          0.21042280	          0.15555519	          0.05000084	          0.05000154	          0.05000023	          0.05000003	          0.05861632	          0.05861613	          0.54981834	          0.26626460	          0.14741934	          0.60177525	          0.54592598	          0.30232244	          0.05000002	          0.09756056	          0.09310679	
